<svg width="2620" height="1105" viewBox="0 0 2620 1105" preserveAspectRatio="none" xmlns="http://www.w3.org/2000/svg" xmlns:xlink="http://www.w3.org/1999/xlink" overflow="hidden"><defs></defs><g><g><text font-family="Arial" font-weight="700" font-size="14" x="1213.64" y="22.9951">Global Health Network</text></g><g id="cluster_BH"><path d="M16 53.2969 26 43.2969 792 43.2969 792 1078.75 782 1088.75 16 1088.75 16 53.2969Z" stroke="#7A7A7A" fill="#E8F0F6"/><line x1="782" y1="53.2969" x2="792" y2="43.2969" stroke="#7A7A7A"/><line x1="16" y1="53.2969" x2="782" y2="53.2969" stroke="#7A7A7A"/><line x1="782" y1="53.2969" x2="782" y2="1088.75" stroke="#7A7A7A"/><text font-family="Arial" font-weight="700" font-size="14" x="339.334" y="69.292">Bahrain Branch</text><text font-family="Arial" font-weight="700" font-size="14" x="345.63" y="85.5889">172.16.0.0/16</text><text font-family="Arial" font-weight="700" font-size="14" x="311.044" y="101.886">IGP: EIGRP (BH-EIGRP)</text><text font-family="Arial" font-weight="700" font-size="14" x="353.844" y="118.183">BGP AS 160</text></g><g id="cluster_BH_SW"><path d="M97 534.317 107 524.317 714 524.317 714 841.657 704 851.657 97 851.657 97 534.317Z" stroke="#7A7A7A" fill="#E8F0F6"/><line x1="704" y1="534.317" x2="714" y2="524.317" stroke="#7A7A7A"/><line x1="97" y1="534.317" x2="704" y2="534.317" stroke="#7A7A7A"/><line x1="704" y1="534.317" x2="704" y2="851.657" stroke="#7A7A7A"/><text font-family="Arial" font-weight="700" font-size="14" x="318.29" y="550.312">Bahrain Switch Block</text></g><g id="cluster_BH_PC"><path d="M487 939.157 497 929.157 760 929.157 760 1046.75 750 1056.75 487 1056.75 487 939.157Z" stroke="#7A7A7A" fill="#E8F0F6"/><line x1="750" y1="939.157" x2="760" y2="929.157" stroke="#7A7A7A"/><line x1="487" y1="939.157" x2="750" y2="939.157" stroke="#7A7A7A"/><line x1="750" y1="939.157" x2="750" y2="1056.75" stroke="#7A7A7A"/><text font-family="Arial" font-weight="700" font-size="14" x="572.028" y="955.152">Bahrain PCs</text></g><g id="cluster_EN"><path d="M816 53.2969 826 43.2969 1362 43.2969 1362 878.157 1352 888.157 816 888.157 816 53.2969Z" stroke="#7A7A7A" fill="#E8F0F6"/><line x1="1352" y1="53.2969" x2="1362" y2="43.2969" stroke="#7A7A7A"/><line x1="816" y1="53.2969" x2="1352" y2="53.2969" stroke="#7A7A7A"/><line x1="1352" y1="53.2969" x2="1352" y2="888.157" stroke="#7A7A7A"/><text font-family="Arial" font-weight="700" font-size="14" x="1023.04" y="69.292">England Branch</text><text font-family="Arial" font-weight="700" font-size="14" x="1030.63" y="85.5889">172.17.0.0/16</text><text font-family="Arial" font-weight="700" font-size="14" x="1054.66" y="101.886">OSPFv3</text><text font-family="Arial" font-weight="700" font-size="14" x="1038.84" y="118.183">BGP AS 170</text></g><g id="cluster_EN_SW"><path d="M933 348.077 943 338.077 1192 338.077 1192 632.907 1182 642.907 933 642.907 933 348.077Z" stroke="#7A7A7A" fill="#E8F0F6"/><line x1="1182" y1="348.077" x2="1192" y2="338.077" stroke="#7A7A7A"/><line x1="933" y1="348.077" x2="1182" y2="348.077" stroke="#7A7A7A"/><line x1="1182" y1="348.077" x2="1182" y2="642.907" stroke="#7A7A7A"/><text font-family="Arial" font-weight="700" font-size="14" x="973.998" y="364.072">England Switch Block</text></g><g id="cluster_EN_PC"><path d="M848 722.267 858 712.267 1136 712.267 1136 846.157 1126 856.157 848 856.157 848 722.267Z" stroke="#7A7A7A" fill="#E8F0F6"/><line x1="1126" y1="722.267" x2="1136" y2="712.267" stroke="#7A7A7A"/><line x1="848" y1="722.267" x2="1126" y2="722.267" stroke="#7A7A7A"/><line x1="1126" y1="722.267" x2="1126" y2="856.157" stroke="#7A7A7A"/><text font-family="Arial" font-weight="700" font-size="14" x="939.236" y="738.262">England PCs</text></g><g id="cluster_LU"><path d="M1644 53.2969 1654 43.2969 2098 43.2969 2098 661.267 2088 671.267 1644 671.267 1644 53.2969Z" stroke="#7A7A7A" fill="#E8F0F6"/><line x1="2088" y1="53.2969" x2="2098" y2="43.2969" stroke="#7A7A7A"/><line x1="1644" y1="53.2969" x2="2088" y2="53.2969" stroke="#7A7A7A"/><line x1="2088" y1="53.2969" x2="2088" y2="671.267" stroke="#7A7A7A"/><text font-family="Arial" font-weight="700" font-size="14" x="1787.67" y="69.292">Luxembourg Branch</text><text font-family="Arial" font-weight="700" font-size="14" x="1812.63" y="85.5889">172.18.0.0/16</text><text font-family="Arial" font-weight="700" font-size="14" x="1836.66" y="101.886">OSPFv3</text><text font-family="Arial" font-weight="700" font-size="14" x="1820.84" y="118.183">BGP AS 180</text></g><g id="cluster_LU_PC"><path d="M1804 537.967 1814 527.967 2066 527.967 2066 629.267 2056 639.267 1804 639.267 1804 537.967Z" stroke="#7A7A7A" fill="#E8F0F6"/><line x1="2056" y1="537.967" x2="2066" y2="527.967" stroke="#7A7A7A"/><line x1="1804" y1="537.967" x2="2056" y2="537.967" stroke="#7A7A7A"/><line x1="2056" y1="537.967" x2="2056" y2="639.267" stroke="#7A7A7A"/><text font-family="Arial" font-weight="700" font-size="14" x="1900.17" y="553.962">Lux PCs</text></g><g id="cluster_CH"><path d="M2122 53.2969 2132 43.2969 2603 43.2969 2603 661.267 2593 671.267 2122 671.267 2122 53.2969Z" stroke="#7A7A7A" fill="#E8F0F6"/><line x1="2593" y1="53.2969" x2="2603" y2="43.2969" stroke="#7A7A7A"/><line x1="2122" y1="53.2969" x2="2593" y2="53.2969" stroke="#7A7A7A"/><line x1="2593" y1="53.2969" x2="2593" y2="671.267" stroke="#7A7A7A"/><text font-family="Arial" font-weight="700" font-size="14" x="2306.21" y="69.292">China Branch</text><text font-family="Arial" font-weight="700" font-size="14" x="2304.13" y="85.5889">172.19.0.0/16</text><text font-family="Arial" font-weight="700" font-size="14" x="2334.85" y="101.886">EIGRP</text><text font-family="Arial" font-weight="700" font-size="14" x="2312.34" y="118.183">BGP AS 190</text></g><g id="cluster_CH_PC"><path d="M2159 537.967 2169 527.967 2426 527.967 2426 629.267 2416 639.267 2159 639.267 2159 537.967Z" stroke="#7A7A7A" fill="#E8F0F6"/><line x1="2416" y1="537.967" x2="2426" y2="527.967" stroke="#7A7A7A"/><line x1="2159" y1="537.967" x2="2416" y2="537.967" stroke="#7A7A7A"/><line x1="2416" y1="537.967" x2="2416" y2="639.267" stroke="#7A7A7A"/><text font-family="Arial" font-weight="700" font-size="14" x="2249.4" y="553.962">China PCs</text></g><g id="entity_BHR1"><path d="M280.84 142.297 290.84 132.297 511.159 132.297 511.159 250.078 501.159 260.078 280.84 260.078 280.84 142.297Z" stroke="#7A7A7A" stroke-width="0.5" fill="#E8F0F6"/><line x1="501.159" y1="142.297" x2="511.159" y2="132.297" stroke="#7A7A7A" stroke-width="0.5"/><line x1="280.84" y1="142.297" x2="501.159" y2="142.297" stroke="#7A7A7A" stroke-width="0.5"/><line x1="501.159" y1="142.297" x2="501.159" y2="260.078" stroke="#7A7A7A" stroke-width="0.5"/><text font-family="Arial" font-size="14" x="295.84" y="165.292">BH-R1</text><text font-family="Arial" font-size="14" x="295.84" y="181.589">DMVPN Hub (Active)</text><text font-family="Arial" font-size="14" x="295.84" y="197.886">Tunnel1</text><text font-family="Arial" font-size="14" x="295.84" y="214.183">EIGRP: DMVPN + BH-EIGRP</text><text font-family="Arial" font-size="14" x="295.84" y="230.48">BGP AS 160</text><text font-family="Arial" font-size="14" x="295.84" y="246.776">IPsec</text></g><g id="entity_BHR2"><path d="M545.84 142.297 555.84 132.297 776.159 132.297 776.159 250.078 766.159 260.078 545.84 260.078 545.84 142.297Z" stroke="#7A7A7A" stroke-width="0.5" fill="#E8F0F6"/><line x1="766.159" y1="142.297" x2="776.159" y2="132.297" stroke="#7A7A7A" stroke-width="0.5"/><line x1="545.84" y1="142.297" x2="766.159" y2="142.297" stroke="#7A7A7A" stroke-width="0.5"/><line x1="766.159" y1="142.297" x2="766.159" y2="260.078" stroke="#7A7A7A" stroke-width="0.5"/><text font-family="Arial" font-size="14" x="560.84" y="165.292">BH-R2</text><text font-family="Arial" font-size="14" x="560.84" y="181.589">DMVPN Hub (Backup)</text><text font-family="Arial" font-size="14" x="560.84" y="197.886">Tunnel2</text><text font-family="Arial" font-size="14" x="560.84" y="214.183">EIGRP: DMVPN + BH-EIGRP</text><text font-family="Arial" font-size="14" x="560.84" y="230.48">BGP AS 160</text><text font-family="Arial" font-size="14" x="560.84" y="246.776">IPsec</text></g><g id="entity_BHR3"><path d="M85.75 158.587 95.75 148.587 246.247 148.587 246.247 233.774 236.247 243.774 85.75 243.774 85.75 158.587Z" stroke="#7A7A7A" stroke-width="0.5" fill="#E8F0F6"/><line x1="236.247" y1="158.587" x2="246.247" y2="148.587" stroke="#7A7A7A" stroke-width="0.5"/><line x1="85.75" y1="158.587" x2="236.247" y2="158.587" stroke="#7A7A7A" stroke-width="0.5"/><line x1="236.247" y1="158.587" x2="236.247" y2="243.774" stroke="#7A7A7A" stroke-width="0.5"/><text font-family="Arial" font-size="14" x="100.75" y="181.582">BH-R3</text><text font-family="Arial" font-size="14" x="100.75" y="197.879">Internal Gateway</text><text font-family="Arial" font-size="14" x="100.75" y="214.176">EIGRP BH-EIGRP</text><text font-family="Arial" font-size="14" x="100.75" y="230.473">HSRP Active</text></g><g id="entity_BHR4"><path d="M85.75 371.777 95.75 361.777 246.247 361.777 246.247 446.964 236.247 456.964 85.75 456.964 85.75 371.777Z" stroke="#7A7A7A" stroke-width="0.5" fill="#E8F0F6"/><line x1="236.247" y1="371.777" x2="246.247" y2="361.777" stroke="#7A7A7A" stroke-width="0.5"/><line x1="85.75" y1="371.777" x2="236.247" y2="371.777" stroke="#7A7A7A" stroke-width="0.5"/><line x1="236.247" y1="371.777" x2="236.247" y2="456.964" stroke="#7A7A7A" stroke-width="0.5"/><text font-family="Arial" font-size="14" x="100.75" y="394.772">BH-R4</text><text font-family="Arial" font-size="14" x="100.75" y="411.069">Internal Gateway</text><text font-family="Arial" font-size="14" x="100.75" y="427.366">EIGRP BH-EIGRP</text><text font-family="Arial" font-size="14" x="100.75" y="443.663">HSRP Standby</text></g><g id="entity_BH_SRV1"><path d="M32.37 983.657 42.37 973.657 259.634 973.657 259.634 1026.25 249.634 1036.25 32.37 1036.25 32.37 983.657Z" stroke="#7A7A7A" stroke-width="0.5" fill="#E8F0F6"/><line x1="249.634" y1="983.657" x2="259.634" y2="973.657" stroke="#7A7A7A" stroke-width="0.5"/><line x1="32.37" y1="983.657" x2="249.634" y2="983.657" stroke="#7A7A7A" stroke-width="0.5"/><line x1="249.634" y1="983.657" x2="249.634" y2="1036.25" stroke="#7A7A7A" stroke-width="0.5"/><text font-family="Arial" font-size="14" x="47.37" y="1006.65">BH-Server1</text><text font-family="Arial" font-size="14" x="47.37" y="1022.95">DNS + FTP + Web + Email</text></g><g id="entity_BH_SRV2"><path d="M295.05 983.657 305.05 973.657 462.944 973.657 462.944 1026.25 452.944 1036.25 295.05 1036.25 295.05 983.657Z" stroke="#7A7A7A" stroke-width="0.5" fill="#E8F0F6"/><line x1="452.944" y1="983.657" x2="462.944" y2="973.657" stroke="#7A7A7A" stroke-width="0.5"/><line x1="295.05" y1="983.657" x2="452.944" y2="983.657" stroke="#7A7A7A" stroke-width="0.5"/><line x1="452.944" y1="983.657" x2="452.944" y2="1036.25" stroke="#7A7A7A" stroke-width="0.5"/><text font-family="Arial" font-size="14" x="310.05" y="1006.65">BH-Server-Backup</text><text font-family="Arial" font-size="14" x="310.05" y="1022.95"></text></g><g id="entity_BH_SW1"><path d="M257.53 574.317 267.53 564.317 374.462 564.317 374.462 616.911 364.462 626.911 257.53 626.911 257.53 574.317Z" stroke="#7A7A7A" stroke-width="0.5" fill="#E8F0F6"/><line x1="364.462" y1="574.317" x2="374.462" y2="564.317" stroke="#7A7A7A" stroke-width="0.5"/><line x1="257.53" y1="574.317" x2="364.462" y2="574.317" stroke="#7A7A7A" stroke-width="0.5"/><line x1="364.462" y1="574.317" x2="364.462" y2="626.911" stroke="#7A7A7A" stroke-width="0.5"/><text font-family="Arial" font-size="14" x="272.53" y="597.312">BH-SW1</text><text font-family="Arial" font-size="14" x="272.53" y="613.609">VTP Server</text></g><g id="entity_BH_SW2"><path d="M113.22 774.907 123.22 764.907 224.772 764.907 224.772 817.501 214.772 827.501 113.22 827.501 113.22 774.907Z" stroke="#7A7A7A" stroke-width="0.5" fill="#E8F0F6"/><line x1="214.772" y1="774.907" x2="224.772" y2="764.907" stroke="#7A7A7A" stroke-width="0.5"/><line x1="113.22" y1="774.907" x2="214.772" y2="774.907" stroke="#7A7A7A" stroke-width="0.5"/><line x1="214.772" y1="774.907" x2="214.772" y2="827.501" stroke="#7A7A7A" stroke-width="0.5"/><text font-family="Arial" font-size="14" x="128.22" y="797.902">BH-SW2</text><text font-family="Arial" font-size="14" x="128.22" y="814.199">VTP Client</text></g><g id="entity_BH_SW3"><path d="M260.22 766.767 270.22 756.767 371.772 756.767 371.772 825.657 361.772 835.657 260.22 835.657 260.22 766.767Z" stroke="#7A7A7A" stroke-width="0.5" fill="#E8F0F6"/><line x1="361.772" y1="766.767" x2="371.772" y2="756.767" stroke="#7A7A7A" stroke-width="0.5"/><line x1="260.22" y1="766.767" x2="361.772" y2="766.767" stroke="#7A7A7A" stroke-width="0.5"/><line x1="361.772" y1="766.767" x2="361.772" y2="835.658" stroke="#7A7A7A" stroke-width="0.5"/><text font-family="Arial" font-size="14" x="275.22" y="789.762">BH-SW3</text><text font-family="Arial" font-size="14" x="275.22" y="806.059">VTP Client</text><text font-family="Arial" font-size="14" x="275.22" y="822.356">STP Root</text></g><g id="entity_BH_SW4"><path d="M406.76 766.767 416.76 756.767 551.234 756.767 551.234 825.657 541.234 835.657 406.76 835.657 406.76 766.767Z" stroke="#7A7A7A" stroke-width="0.5" fill="#E8F0F6"/><line x1="541.234" y1="766.767" x2="551.234" y2="756.767" stroke="#7A7A7A" stroke-width="0.5"/><line x1="406.76" y1="766.767" x2="541.234" y2="766.767" stroke="#7A7A7A" stroke-width="0.5"/><line x1="541.234" y1="766.767" x2="541.234" y2="835.658" stroke="#7A7A7A" stroke-width="0.5"/><text font-family="Arial" font-size="14" x="421.76" y="789.762">BH-SW4</text><text font-family="Arial" font-size="14" x="421.76" y="806.059">VTP Client</text><text font-family="Arial" font-size="14" x="421.76" y="822.356">STP Secondary</text></g><g id="entity_BH_SW5"><path d="M586.22 774.907 596.22 764.907 697.772 764.907 697.772 817.501 687.772 827.501 586.22 827.501 586.22 774.907Z" stroke="#7A7A7A" stroke-width="0.5" fill="#E8F0F6"/><line x1="687.772" y1="774.907" x2="697.772" y2="764.907" stroke="#7A7A7A" stroke-width="0.5"/><line x1="586.22" y1="774.907" x2="687.772" y2="774.907" stroke="#7A7A7A" stroke-width="0.5"/><line x1="687.772" y1="774.907" x2="687.772" y2="827.501" stroke="#7A7A7A" stroke-width="0.5"/><text font-family="Arial" font-size="14" x="601.22" y="797.902">BH-SW5</text><text font-family="Arial" font-size="14" x="601.22" y="814.199">VTP Client</text></g><g id="entity_BH-PC1.nVLAN10"><rect x="511.38" y="977.157" rx="2.5" ry="2.5" width="85.2412" height="55.5938" stroke="#7A7A7A" stroke-width="0.5" fill="#E8F2FA"/><path d="M579.621 982.157 579.621 996.157 591.621 996.157 591.621 988.157 585.621 982.157 579.621 982.157Z" stroke="#7A7A7A" stroke-width="0.5" fill="#E8F2FA"/><line x1="585.621" y1="982.157" x2="585.621" y2="988.157" stroke="#7A7A7A" stroke-width="0.5"/><line x1="591.621" y1="988.157" x2="585.621" y2="988.157" stroke="#7A7A7A" stroke-width="0.5"/><text font-family="Arial" font-size="14" x="521.38" y="1003.15">BH-PC1</text><text font-family="Arial" font-size="14" x="521.38" y="1019.45">VLAN10</text></g><g id="entity_BH-PC2.nVLAN20"><rect x="631.38" y="977.157" rx="2.5" ry="2.5" width="85.2412" height="55.5938" stroke="#7A7A7A" stroke-width="0.5" fill="#E8F2FA"/><path d="M699.621 982.157 699.621 996.157 711.621 996.157 711.621 988.157 705.621 982.157 699.621 982.157Z" stroke="#7A7A7A" stroke-width="0.5" fill="#E8F2FA"/><line x1="705.621" y1="982.157" x2="705.621" y2="988.157" stroke="#7A7A7A" stroke-width="0.5"/><line x1="711.621" y1="988.157" x2="705.621" y2="988.157" stroke="#7A7A7A" stroke-width="0.5"/><text font-family="Arial" font-size="14" x="641.38" y="1003.15">BH-PC2</text><text font-family="Arial" font-size="14" x="641.38" y="1019.45">VLAN20</text></g><g id="entity_ENR1"><path d="M1033.57 142.297 1043.57 132.297 1172.43 132.297 1172.43 250.078 1162.43 260.078 1033.57 260.078 1033.57 142.297Z" stroke="#7A7A7A" stroke-width="0.5" fill="#E8F0F6"/><line x1="1162.43" y1="142.297" x2="1172.43" y2="132.297" stroke="#7A7A7A" stroke-width="0.5"/><line x1="1033.57" y1="142.297" x2="1162.43" y2="142.297" stroke="#7A7A7A" stroke-width="0.5"/><line x1="1162.43" y1="142.297" x2="1162.43" y2="260.078" stroke="#7A7A7A" stroke-width="0.5"/><text font-family="Arial" font-size="14" x="1048.57" y="165.292">EN-R1</text><text font-family="Arial" font-size="14" x="1048.57" y="181.589">DMVPN Spoke</text><text font-family="Arial" font-size="14" x="1048.57" y="197.886">Tunnels 1 &amp; 2</text><text font-family="Arial" font-size="14" x="1048.57" y="214.183">OSPFv3</text><text font-family="Arial" font-size="14" x="1048.57" y="230.48">EIGRP DMVPN</text><text font-family="Arial" font-size="14" x="1048.57" y="246.776">BGP 170</text></g><g id="entity_ENR2"><path d="M1207.57 142.297 1217.57 132.297 1346.43 132.297 1346.43 250.078 1336.43 260.078 1207.57 260.078 1207.57 142.297Z" stroke="#7A7A7A" stroke-width="0.5" fill="#E8F0F6"/><line x1="1336.43" y1="142.297" x2="1346.43" y2="132.297" stroke="#7A7A7A" stroke-width="0.5"/><line x1="1207.57" y1="142.297" x2="1336.43" y2="142.297" stroke="#7A7A7A" stroke-width="0.5"/><line x1="1336.43" y1="142.297" x2="1336.43" y2="260.078" stroke="#7A7A7A" stroke-width="0.5"/><text font-family="Arial" font-size="14" x="1222.57" y="165.292">EN-R2</text><text font-family="Arial" font-size="14" x="1222.57" y="181.589">DMVPN Spoke</text><text font-family="Arial" font-size="14" x="1222.57" y="197.886">Tunnels 1 &amp; 2</text><text font-family="Arial" font-size="14" x="1222.57" y="214.183">OSPFv3</text><text font-family="Arial" font-size="14" x="1222.57" y="230.48">EIGRP DMVPN</text><text font-family="Arial" font-size="14" x="1222.57" y="246.776">BGP 170</text></g><g id="entity_ENR3"><path d="M831.59 166.737 841.59 156.737 998.404 156.737 998.404 225.628 988.404 235.628 831.59 235.628 831.59 166.737Z" stroke="#7A7A7A" stroke-width="0.5" fill="#E8F0F6"/><line x1="988.404" y1="166.737" x2="998.404" y2="156.737" stroke="#7A7A7A" stroke-width="0.5"/><line x1="831.59" y1="166.737" x2="988.404" y2="166.737" stroke="#7A7A7A" stroke-width="0.5"/><line x1="988.404" y1="166.737" x2="988.404" y2="235.627" stroke="#7A7A7A" stroke-width="0.5"/><text font-family="Arial" font-size="14" x="846.59" y="189.732">EN-R3</text><text font-family="Arial" font-size="14" x="846.59" y="206.029">Inter-VLAN Router</text><text font-family="Arial" font-size="14" x="846.59" y="222.326">OSPFv3</text></g><g id="entity_ENSW1"><path d="M949.16 388.077 959.16 378.077 1070.84 378.077 1070.84 430.671 1060.84 440.671 949.16 440.671 949.16 388.077Z" stroke="#7A7A7A" stroke-width="0.5" fill="#E8F0F6"/><line x1="1060.84" y1="388.077" x2="1070.84" y2="378.077" stroke="#7A7A7A" stroke-width="0.5"/><line x1="949.16" y1="388.077" x2="1060.84" y2="388.077" stroke="#7A7A7A" stroke-width="0.5"/><line x1="1060.84" y1="388.077" x2="1060.84" y2="440.671" stroke="#7A7A7A" stroke-width="0.5"/><text font-family="Arial" font-size="14" x="964.16" y="411.072">EN-SW1</text><text font-family="Arial" font-size="14" x="964.16" y="427.369">Distribution</text></g><g id="entity_ENSW2"><path d="M949 574.317 959 564.317 1045.01 564.317 1045.01 616.911 1035.01 626.911 949 626.911 949 574.317Z" stroke="#7A7A7A" stroke-width="0.5" fill="#E8F0F6"/><line x1="1035.01" y1="574.317" x2="1045.01" y2="564.317" stroke="#7A7A7A" stroke-width="0.5"/><line x1="949" y1="574.317" x2="1035.01" y2="574.317" stroke="#7A7A7A" stroke-width="0.5"/><line x1="1035.01" y1="574.317" x2="1035.01" y2="626.911" stroke="#7A7A7A" stroke-width="0.5"/><text font-family="Arial" font-size="14" x="964" y="597.312">EN-SW2</text><text font-family="Arial" font-size="14" x="964" y="613.609">Access</text></g><g id="entity_ENSW3"><path d="M1080 574.317 1090 564.317 1176.01 564.317 1176.01 616.911 1166.01 626.911 1080 626.911 1080 574.317Z" stroke="#7A7A7A" stroke-width="0.5" fill="#E8F0F6"/><line x1="1166.01" y1="574.317" x2="1176.01" y2="564.317" stroke="#7A7A7A" stroke-width="0.5"/><line x1="1080" y1="574.317" x2="1166.01" y2="574.317" stroke="#7A7A7A" stroke-width="0.5"/><line x1="1166.01" y1="574.317" x2="1166.01" y2="626.911" stroke="#7A7A7A" stroke-width="0.5"/><text font-family="Arial" font-size="14" x="1095" y="597.312">EN-SW3</text><text font-family="Arial" font-size="14" x="1095" y="613.609">Access</text></g><g id="entity_EN-PC1.nWin10 Pro.nTest Client"><rect x="871.54" y="760.267" rx="2.5" ry="2.5" width="104.929" height="71.8906" stroke="#7A7A7A" stroke-width="0.5" fill="#E8F2FA"/><path d="M959.469 765.267 959.469 779.267 971.469 779.267 971.469 771.267 965.469 765.267 959.469 765.267Z" stroke="#7A7A7A" stroke-width="0.5" fill="#E8F2FA"/><line x1="965.469" y1="765.267" x2="965.469" y2="771.267" stroke="#7A7A7A" stroke-width="0.5"/><line x1="971.469" y1="771.267" x2="965.469" y2="771.267" stroke="#7A7A7A" stroke-width="0.5"/><text font-family="Arial" font-size="14" x="881.54" y="786.262">EN-PC1</text><text font-family="Arial" font-size="14" x="881.54" y="802.559">Win10 Pro</text><text font-family="Arial" font-size="14" x="881.54" y="818.856">Test Client</text></g><g id="entity_EN-PC2"><rect x="1011.25" y="776.557" rx="2.5" ry="2.5" width="81.4951" height="39.2969" stroke="#7A7A7A" stroke-width="0.5" fill="#E8F2FA"/><path d="M1075.75 781.557 1075.75 795.557 1087.75 795.557 1087.75 787.557 1081.75 781.557 1075.75 781.557Z" stroke="#7A7A7A" stroke-width="0.5" fill="#E8F2FA"/><line x1="1081.75" y1="781.557" x2="1081.75" y2="787.557" stroke="#7A7A7A" stroke-width="0.5"/><line x1="1087.75" y1="787.557" x2="1081.75" y2="787.557" stroke="#7A7A7A" stroke-width="0.5"/><text font-family="Arial" font-size="14" x="1021.25" y="802.552">EN-PC2</text></g><g id="entity_LUR1"><path d="M1833.57 142.297 1843.57 132.297 1972.43 132.297 1972.43 250.078 1962.43 260.078 1833.57 260.078 1833.57 142.297Z" stroke="#7A7A7A" stroke-width="0.5" fill="#E8F0F6"/><line x1="1962.43" y1="142.297" x2="1972.43" y2="132.297" stroke="#7A7A7A" stroke-width="0.5"/><line x1="1833.57" y1="142.297" x2="1962.43" y2="142.297" stroke="#7A7A7A" stroke-width="0.5"/><line x1="1962.43" y1="142.297" x2="1962.43" y2="260.078" stroke="#7A7A7A" stroke-width="0.5"/><text font-family="Arial" font-size="14" x="1848.57" y="165.292">LU-R1</text><text font-family="Arial" font-size="14" x="1848.57" y="181.589">DMVPN Spoke</text><text font-family="Arial" font-size="14" x="1848.57" y="197.886">Tunnels 1 &amp; 2</text><text font-family="Arial" font-size="14" x="1848.57" y="214.183">OSPFv3</text><text font-family="Arial" font-size="14" x="1848.57" y="230.48">EIGRP DMVPN</text><text font-family="Arial" font-size="14" x="1848.57" y="246.776">BGP 180</text></g><g id="entity_LUR2"><path d="M1659.57 142.297 1669.57 132.297 1798.43 132.297 1798.43 250.078 1788.43 260.078 1659.57 260.078 1659.57 142.297Z" stroke="#7A7A7A" stroke-width="0.5" fill="#E8F0F6"/><line x1="1788.43" y1="142.297" x2="1798.43" y2="132.297" stroke="#7A7A7A" stroke-width="0.5"/><line x1="1659.57" y1="142.297" x2="1788.43" y2="142.297" stroke="#7A7A7A" stroke-width="0.5"/><line x1="1788.43" y1="142.297" x2="1788.43" y2="260.078" stroke="#7A7A7A" stroke-width="0.5"/><text font-family="Arial" font-size="14" x="1674.57" y="165.292">LU-R2</text><text font-family="Arial" font-size="14" x="1674.57" y="181.589">DMVPN Spoke</text><text font-family="Arial" font-size="14" x="1674.57" y="197.886">Tunnels 1 &amp; 2</text><text font-family="Arial" font-size="14" x="1674.57" y="214.183">OSPFv3</text><text font-family="Arial" font-size="14" x="1674.57" y="230.48">EIGRP DMVPN</text><text font-family="Arial" font-size="14" x="1674.57" y="246.776">BGP 180</text></g><g id="entity_LUSW1"><path d="M1765.55 388.077 1775.55 378.077 1904.46 378.077 1904.46 430.671 1894.46 440.671 1765.55 440.671 1765.55 388.077Z" stroke="#7A7A7A" stroke-width="0.5" fill="#E8F0F6"/><line x1="1894.46" y1="388.077" x2="1904.46" y2="378.077" stroke="#7A7A7A" stroke-width="0.5"/><line x1="1765.55" y1="388.077" x2="1894.46" y2="388.077" stroke="#7A7A7A" stroke-width="0.5"/><line x1="1894.46" y1="388.077" x2="1894.46" y2="440.671" stroke="#7A7A7A" stroke-width="0.5"/><text font-family="Arial" font-size="14" x="1780.55" y="411.072">LU-SW1</text><text font-family="Arial" font-size="14" x="1780.55" y="427.369">Access Switch</text></g><g id="entity_LU_AAA"><path d="M1660.45 566.167 1670.45 556.167 1779.54 556.167 1779.54 625.057 1769.54 635.057 1660.45 635.057 1660.45 566.167Z" stroke="#7A7A7A" stroke-width="0.5" fill="#E8F0F6"/><line x1="1769.54" y1="566.167" x2="1779.54" y2="556.167" stroke="#7A7A7A" stroke-width="0.5"/><line x1="1660.45" y1="566.167" x2="1769.54" y2="566.167" stroke="#7A7A7A" stroke-width="0.5"/><line x1="1769.54" y1="566.167" x2="1769.54" y2="635.058" stroke="#7A7A7A" stroke-width="0.5"/><text font-family="Arial" font-size="14" x="1675.45" y="589.162">AAA Server</text><text font-family="Arial" font-size="14" x="1675.45" y="605.459">Win7</text><text font-family="Arial" font-size="14" x="1675.45" y="621.756">RADIUS</text></g><g id="entity_LU-PC1"><rect x="1827.89" y="575.967" rx="2.5" ry="2.5" width="80.2236" height="39.2969" stroke="#7A7A7A" stroke-width="0.5" fill="#E8F2FA"/><path d="M1891.11 580.967 1891.11 594.967 1903.11 594.967 1903.11 586.967 1897.11 580.967 1891.11 580.967Z" stroke="#7A7A7A" stroke-width="0.5" fill="#E8F2FA"/><line x1="1897.11" y1="580.967" x2="1897.11" y2="586.967" stroke="#7A7A7A" stroke-width="0.5"/><line x1="1903.11" y1="586.967" x2="1897.11" y2="586.967" stroke="#7A7A7A" stroke-width="0.5"/><text font-family="Arial" font-size="14" x="1837.89" y="601.962">LU-PC1</text></g><g id="entity_LU-PC2"><rect x="1942.89" y="575.967" rx="2.5" ry="2.5" width="80.2236" height="39.2969" stroke="#7A7A7A" stroke-width="0.5" fill="#E8F2FA"/><path d="M2006.11 580.967 2006.11 594.967 2018.11 594.967 2018.11 586.967 2012.11 580.967 2006.11 580.967Z" stroke="#7A7A7A" stroke-width="0.5" fill="#E8F2FA"/><line x1="2012.11" y1="580.967" x2="2012.11" y2="586.967" stroke="#7A7A7A" stroke-width="0.5"/><line x1="2018.11" y1="586.967" x2="2012.11" y2="586.967" stroke="#7A7A7A" stroke-width="0.5"/><text font-family="Arial" font-size="14" x="1952.89" y="601.962">LU-PC2</text></g><g id="entity_CHR1"><path d="M2137.86 150.447 2147.86 140.447 2324.14 140.447 2324.14 241.931 2314.14 251.931 2137.86 251.931 2137.86 150.447Z" stroke="#7A7A7A" stroke-width="0.5" fill="#E8F0F6"/><line x1="2314.14" y1="150.447" x2="2324.14" y2="140.447" stroke="#7A7A7A" stroke-width="0.5"/><line x1="2137.86" y1="150.447" x2="2314.14" y2="150.447" stroke="#7A7A7A" stroke-width="0.5"/><line x1="2314.14" y1="150.447" x2="2314.14" y2="251.931" stroke="#7A7A7A" stroke-width="0.5"/><text font-family="Arial" font-size="14" x="2152.86" y="173.442">CH-R1</text><text font-family="Arial" font-size="14" x="2152.86" y="189.739">DMVPN Spoke</text><text font-family="Arial" font-size="14" x="2152.86" y="206.036">Tunnels 1 &amp; 2</text><text font-family="Arial" font-size="14" x="2152.86" y="222.333">EIGRP LAN + DMVPN</text><text font-family="Arial" font-size="14" x="2152.86" y="238.63">BGP 190</text></g><g id="entity_CHR2"><path d="M2359.01 142.297 2369.01 132.297 2587 132.297 2587 250.078 2577 260.078 2359.01 260.078 2359.01 142.297Z" stroke="#7A7A7A" stroke-width="0.5" fill="#E8F0F6"/><line x1="2577" y1="142.297" x2="2587" y2="132.297" stroke="#7A7A7A" stroke-width="0.5"/><line x1="2359.01" y1="142.297" x2="2577" y2="142.297" stroke="#7A7A7A" stroke-width="0.5"/><line x1="2577" y1="142.297" x2="2577" y2="260.078" stroke="#7A7A7A" stroke-width="0.5"/><text font-family="Arial" font-size="14" x="2374.01" y="165.292">CH-R2</text><text font-family="Arial" font-size="14" x="2374.01" y="181.589">DMVPN Spoke</text><text font-family="Arial" font-size="14" x="2374.01" y="197.886">Tunnels 1 &amp; 2</text><text font-family="Arial" font-size="14" x="2374.01" y="214.183">EIGRP LAN + DMVPN</text><text font-family="Arial" font-size="14" x="2374.01" y="230.48">BGP 190</text><text font-family="Arial" font-size="14" x="2374.01" y="246.776">DHCP Server for China PCs</text></g><g id="entity_CHSW1"><path d="M2348.55 388.077 2358.55 378.077 2487.46 378.077 2487.46 430.671 2477.46 440.671 2348.55 440.671 2348.55 388.077Z" stroke="#7A7A7A" stroke-width="0.5" fill="#E8F0F6"/><line x1="2477.46" y1="388.077" x2="2487.46" y2="378.077" stroke="#7A7A7A" stroke-width="0.5"/><line x1="2348.55" y1="388.077" x2="2477.46" y2="388.077" stroke="#7A7A7A" stroke-width="0.5"/><line x1="2477.46" y1="388.077" x2="2477.46" y2="440.671" stroke="#7A7A7A" stroke-width="0.5"/><text font-family="Arial" font-size="14" x="2363.55" y="411.072">CH-SW1</text><text font-family="Arial" font-size="14" x="2363.55" y="427.369">Access Switch</text></g><g id="entity_CH-PC1"><rect x="2182.76" y="575.967" rx="2.5" ry="2.5" width="82.4795" height="39.2969" stroke="#7A7A7A" stroke-width="0.5" fill="#E8F2FA"/><path d="M2248.24 580.967 2248.24 594.967 2260.24 594.967 2260.24 586.967 2254.24 580.967 2248.24 580.967Z" stroke="#7A7A7A" stroke-width="0.5" fill="#E8F2FA"/><line x1="2254.24" y1="580.967" x2="2254.24" y2="586.967" stroke="#7A7A7A" stroke-width="0.5"/><line x1="2260.24" y1="586.967" x2="2254.24" y2="586.967" stroke="#7A7A7A" stroke-width="0.5"/><text font-family="Arial" font-size="14" x="2192.76" y="601.962">CH-PC1</text></g><g id="entity_CH-PC2"><rect x="2299.76" y="575.967" rx="2.5" ry="2.5" width="82.4795" height="39.2969" stroke="#7A7A7A" stroke-width="0.5" fill="#E8F2FA"/><path d="M2365.24 580.967 2365.24 594.967 2377.24 594.967 2377.24 586.967 2371.24 580.967 2365.24 580.967Z" stroke="#7A7A7A" stroke-width="0.5" fill="#E8F2FA"/><line x1="2371.24" y1="580.967" x2="2371.24" y2="586.967" stroke="#7A7A7A" stroke-width="0.5"/><line x1="2377.24" y1="586.967" x2="2371.24" y2="586.967" stroke="#7A7A7A" stroke-width="0.5"/><text font-family="Arial" font-size="14" x="2309.76" y="601.962">CH-PC2</text></g><g id="entity_DMVPN"><path d="M1388.55 380.165C1392.38 373.291 1398.58 372.697 1403.57 378.834 1408.02 369.073 1416.22 370.576 1421.78 377.633 1425.42 370.448 1433.34 369.997 1437.95 376.479 1440.58 367.718 1448.8 367.775 1454.05 373.567 1458.04 365.172 1466.18 364.455 1471.08 372.631 1476.09 366.214 1483.84 364.89 1487.53 374.032 1492 365.366 1498.15 365.69 1504.17 372.354 1509.23 363.064 1517.22 363.47 1522.75 371.863 1527.85 366.449 1535.44 366.027 1537.86 374.732 1542.54 365.419 1551.44 367.295 1555.77 375.103 1561 366.858 1567.13 369.178 1571.47 376.024 1577.58 367.693 1583.83 368.987 1588.23 377.713 1594.44 369.681 1599.5 371.502 1604.51 378.976 1610.03 370.159 1618.53 371.147 1623.38 379.699 1633.46 383.077 1633.72 388.367 1627.55 395.925 1634.75 397.287 1638.04 403.94 1632.84 409.968 1638.25 417.474 1635.8 424.925 1626.92 427.653 1632.95 433.448 1631.5 441.201 1622.96 443.305 1618.35 451.574 1610.67 451.6 1606.74 442.674 1602.01 451.192 1592.84 453.358 1587.19 443.667 1582.94 450.549 1575.84 451.181 1571.75 443.499 1567.47 450.928 1560.22 453.651 1554.57 444.954 1549.95 452.788 1542.94 450.507 1539.31 443.9 1534.49 455.028 1527.57 454.088 1520.03 446.731 1515.54 453.385 1508.23 452.885 1505.45 445.018 1500.26 451.727 1493.47 451.485 1488.95 444.218 1483.17 454.222 1475.93 452.802 1470.54 443.833 1466.23 452.596 1461.46 453 1455.32 445.546 1449.28 452.15 1442.57 451.896 1438.91 443.013 1432.5 452.463 1426.23 450.022 1420.42 442.357 1416.63 449.329 1409.08 449.701 1405.25 442.399 1400.21 451.336 1391.51 451.316 1386.53 442.335 1376.7 440.912 1375.38 433.866 1381.21 427.006 1372.19 425.096 1371.25 418.309 1376.99 412.196 1371.69 404.351 1373.26 399.436 1381.96 395.848 1377.13 388.157 1377.94 381.378 1388.55 380.165" stroke="#7A7A7A" stroke-width="0.5" fill="#FFF4CC"/><text font-family="Arial" font-size="14" x="1392.53" y="397.922">DMVPN Overlay</text><text font-family="Arial" font-size="14" x="1392.53" y="414.219">EIGRP AS 100 (DMVPN)</text><text font-family="Arial" font-size="14" x="1392.53" y="430.516">All tunnels protected with IPsec</text></g><g id="link_BHR3_BHR4"><path d="M166 244.057C166 279.047 166 326.667 166 361.637" id="BHR3-BHR4" stroke="#181818" fill="none"/><text font-family="Arial" font-size="13" x="167" y="310.644">HSRP Pair</text></g><g id="link_BHR3_BH_SW1"><path d="M204.52 244.177C215.95 258.647 228.27 274.797 239 290.077 292.55 366.317 295.35 395.117 311 486.967 315.4 512.787 316.458 536.557 316.538 558.237" id="BHR3-to-BH_SW1" stroke="#181818" fill="none"/><path d="M316.56 564.237 320.527 555.222 316.542 559.237 312.527 555.252 316.56 564.237Z" stroke="#181818" fill="#181818"/><text font-family="Arial" font-size="13" x="307" y="413.944">SVIs / Inter-VLAN</text></g><g id="link_BHR4_BH_SW1"><path d="M168.48 457.337C171.08 473.157 175.96 490.257 185 503.967 202.66 530.747 226.023 548.861 251.973 563.951" id="BHR4-to-BH_SW1" stroke="#181818" fill="none"/><path d="M257.16 566.967 251.391 558.985 252.838 564.453 247.369 565.901 257.16 566.967Z" stroke="#181818" fill="#181818"/><text font-family="Arial" font-size="13" x="186" y="500.034">HSRP Backup Path</text></g><g id="link_BH_SW1_BH_SW2"><path d="M293.35 627.207C265.73 664.527 219.31 727.247 191.67 764.577" id="BH_SW1-BH_SW2" stroke="#181818" fill="none"/></g><g id="link_BH_SW1_BH_SW3"><path d="M316 627.207C316 661.917 316 718.587 316 756.387" id="BH_SW1-BH_SW3" stroke="#181818" fill="none"/></g><g id="link_BH_SW1_BH_SW4"><path d="M341.11 627.207C369.6 661.917 416.11 718.587 447.14 756.387" id="BH_SW1-BH_SW4" stroke="#181818" fill="none"/></g><g id="link_BH_SW1_BH_SW5"><path d="M374.92 609.807C429.43 624.207 510.6 651.387 569 696.267 593.04 714.737 612.87 743.157 625.76 764.807" id="BH_SW1-BH_SW5" stroke="#181818" fill="none"/></g><g id="link_BH_SW3_BH_SRV1"><path d="M288.28 835.847C274.7 854.377 257.88 876.717 242 896.157 220.12 922.937 193.94 952.167 174.44 973.427" id="BH_SW3-BH_SRV1" stroke="#181818" fill="none"/></g><g id="link_BH_SW3_BH_SRV2"><path d="M327.85 836.097C339.97 875.867 358.55 936.837 369.66 973.317" id="BH_SW3-BH_SRV2" stroke="#181818" fill="none"/></g><g id="link_BH_SW3_BH_PC"><path d="M333.85 836.017C346.08 857.767 364.52 883.077 389 896.157 422.76 914.187 703.95 888.247 733 913.157 736.851 916.458 740.042 920.322 742.677 924.559 743.336 925.618 743.96 926.701 744.551 927.804 744.699 928.08 744.844 928.357 744.988 928.635 745.06 928.774 745.131 928.914 745.202 929.054" id="BH_SW3-BH_PC" stroke="#181818" fill="none"/></g><g id="link_ENR3_ENSW1"><path d="M932.42 235.917C950.8 276.767 976.909 334.805 993.768 372.285" id="ENR3-to-ENSW1" stroke="#181818" fill="none"/><path d="M996.23 377.757 996.186 367.908 994.179 373.197 988.89 371.19 996.23 377.757Z" stroke="#181818" fill="#181818"/><text font-family="Arial" font-size="13" x="973" y="310.644">SVIs / VLAN Routing</text></g><g id="link_ENSW1_ENSW2"><path d="M1007.85 440.797C1005.45 474.827 1001.58 529.657 999.17 563.837" id="ENSW1-ENSW2" stroke="#181818" fill="none"/></g><g id="link_ENSW1_ENSW3"><path d="M1029.49 440.797C1051.28 474.827 1086.4 529.657 1108.29 563.837" id="ENSW1-ENSW3" stroke="#181818" fill="none"/></g><g id="link_ENSW2_EN_PC"><path d="M1015.03 627.267C1026.56 644.597 1042.91 665.467 1062 679.267 1080 692.277 1094.58 679.367 1109 696.267 1112.58 700.457 1115.56 705.114 1118.05 710.059 1118.36 710.677 1118.66 711.3 1118.95 711.927" id="ENSW2-EN_PC" stroke="#181818" fill="none"/></g><g id="link_ENSW3_EN_PC"><path d="M1128 627.207C1128 640.917 1128 658.054 1128 676.101 1128 685.124 1128 694.375 1128 703.538 1128 705.829 1128 708.115 1128 710.39 1128 710.959 1128 711.527 1128 712.094" id="ENSW3-EN_PC" stroke="#181818" fill="none"/></g><g id="link_LUR2_LUSW1"><path d="M1760.8 260.547C1780.26 299.307 1801.58 341.784 1816.92 372.354" id="LUR2-to-LUSW1" stroke="#181818" fill="none"/><path d="M1819.61 377.717 1819.15 367.879 1817.37 373.248 1812 371.467 1819.61 377.717Z" stroke="#181818" fill="#181818"/></g><g id="link_LUR1_LUSW1"><path d="M1882.6 260.547C1870.12 299.307 1856.55 341.435 1846.71 372.005" id="LUR1-to-LUSW1" stroke="#181818" fill="none"/><path d="M1844.87 377.717 1851.44 370.375 1846.4 372.957 1843.82 367.924 1844.87 377.717Z" stroke="#181818" fill="#181818"/></g><g id="link_LUSW1_LU_PC"><path d="M1904.51 428.217C1949.39 443.287 2005.45 469.387 2039 511.967 2041.82 515.552 2044.24 519.481 2046.31 523.617 2046.83 524.651 2047.33 525.698 2047.8 526.756 2047.92 527.021 2048.04 527.286 2048.16 527.552 2048.21 527.684 2048.27 527.818 2048.33 527.951" id="LUSW1-LU_PC" stroke="#181818" fill="none"/></g><g id="link_LUSW1_LU_AAA"><path d="M1816.01 440.797C1796.36 472.277 1765.61 521.547 1744.22 555.807" id="LUSW1-LU_AAA" stroke="#181818" fill="none"/></g><g id="link_CHR1_CHSW1"><path d="M2279.89 252.397C2315.27 292.357 2357.82 340.405 2386.82 373.155" id="CHR1-to-CHSW1" stroke="#181818" fill="none"/><path d="M2390.8 377.647 2387.83 368.257 2387.49 373.904 2381.84 373.561 2390.8 377.647Z" stroke="#181818" fill="#181818"/></g><g id="link_CHSW1_CH_PC"><path d="M2418 440.797C2418 453.674 2418 469.529 2418 486.116 2418 494.41 2418 502.886 2418 511.265 2418 515.455 2418 519.62 2418 523.725 2418 524.752 2418 525.774 2418 526.793 2418 527.047 2418 527.302 2418 527.556" id="CHSW1-CH_PC" stroke="#181818" fill="none"/></g><g id="link_CHR2_CHSW1"><path d="M2456.5 260.547C2446.4 299.307 2435.45 341.341 2427.49 371.91" id="CHR2-to-CHSW1" stroke="#181818" fill="none"/><path d="M2425.98 377.717 2432.12 370.015 2427.24 372.878 2424.38 367.999 2425.98 377.717Z" stroke="#181818" fill="#181818"/><text font-family="Arial" font-size="13" x="2505.94" y="303.144">DHCP</text><text font-family="Arial" font-size="13" x="2449" y="318.277">(Assigns IPs to CH-PCs)</text></g><g id="link_BHR1_DMVPN"><path d="M479 260.507C515.59 284.667 560.37 309.427 605 322.077 636.38 330.967 1159.66 325.847 1192 330.077 1253.83 338.167 1321.09 354.167 1377.19 369.607" id="BHR1-DMVPN" stroke="#181818" fill="none"/><text font-family="Arial" font-size="13" x="606" y="310.644">Hub (Active)</text></g><g id="link_BHR2_DMVPN"><path d="M678.68 260.547C688.61 284.017 703.65 308.247 726 322.077 748.02 335.697 1166.33 326.667 1192 330.077 1253.82 338.277 1321.07 354.287 1377.17 369.707" id="BHR2-DMVPN" stroke="#181818" fill="none"/><text font-family="Arial" font-size="13" x="727" y="310.644">Hub (Backup)</text></g><g id="link_ENR1_DMVPN"><path d="M1172.62 256.727C1201.21 279.217 1235.44 303.777 1269 322.077 1302.74 340.467 1341.21 356.487 1377.07 369.557" id="ENR1-DMVPN" stroke="#181818" fill="none"/><text font-family="Arial" font-size="13" x="1270" y="310.644">Spoke</text></g><g id="link_ENR2_DMVPN"><path d="M1300.29 260.447C1310.41 281.857 1323.91 304.707 1341 322.077 1359.66 341.037 1383.39 356.817 1406.89 369.457" id="ENR2-DMVPN" stroke="#181818" fill="none"/><text font-family="Arial" font-size="13" x="1342" y="310.644">Spoke</text></g><g id="link_LUR1_DMVPN"><path d="M1833.32 252.137C1827.64 255.167 1821.84 257.867 1816 260.077 1750.62 284.737 1549.99 238.367 1503 290.077 1483.94 311.047 1485.43 343.787 1490.85 369.507" id="LUR1-DMVPN" stroke="#181818" fill="none"/><text font-family="Arial" font-size="13" x="1504" y="310.644">Spoke</text></g><g id="link_LUR2_DMVPN"><path d="M1659.32 208.457C1577.82 223.237 1450.38 251.847 1422 290.077 1402.72 316.057 1423.9 346.157 1449.43 369.497" id="LUR2-DMVPN" stroke="#181818" fill="none"/><text font-family="Arial" font-size="13" x="1423" y="310.644">Spoke</text></g><g id="link_CHR1_DMVPN"><path d="M2137.52 245.467C2124.48 250.997 2111.07 256.067 2098 260.077 1902.8 319.887 1837.15 263.927 1644 330.077 1615.66 339.777 1586.37 355.057 1561.89 369.537" id="CHR1-DMVPN" stroke="#181818" fill="none"/><text font-family="Arial" font-size="13" x="1934" y="310.644">Spoke</text></g><g id="link_CHR2_DMVPN"><path d="M2358.72 254.257C2353.12 256.357 2347.53 258.307 2342 260.077 2187.34 309.457 2143.59 306.337 1982 322.077 1944.61 325.717 1680.25 320.227 1644 330.077 1613.87 338.257 1583.24 354.167 1558.26 369.517" id="CHR2-DMVPN" stroke="#181818" fill="none"/><text font-family="Arial" font-size="13" x="2234" y="310.644">Spoke</text></g></g></svg>